<svg width="40" height="40" viewBox="0 0 40 40" fill="none" xmlns="http://www.w3.org/2000/svg">
<path d="M20 0C31 0 40 9 40 20C40 31 31 40 20 40C9 40 0 30.9999 0 20C0 9.00014 9 0 20 0Z" fill="#DD4B39"/>
<path d="M30.1248 16.6249V18.8749H32.3747V21.1249H30.1248V23.375H27.8748V21.1249H25.6248V18.8749H27.8748V16.6249H30.1248Z" fill="white"/>
<path d="M9.87488 25.6249C6.87488 22.6249 6.87488 17.3748 9.99983 14.375C12.2499 12.125 15.4998 11.625 18.3748 12.75L19.4998 13.375L20.7498 14.25L18.7498 16.25L17.9998 15.7501C16.2499 14.6252 13.7498 14.8751 12.1249 16.5001C10.2499 18.3751 10.1249 21.7501 12.1249 23.7501C14 25.7501 17.3749 25.7501 19.1249 23.7501C19.6248 23.2502 20.1249 22.5001 20.2499 21.7501V21.5001H15.7499V19.0001H22.8749L22.9998 19.6252V21.3751C22.8749 23.0001 22.2499 24.6252 21.1248 25.7501C18.1249 28.6249 12.8749 28.6249 9.87488 25.6249Z" fill="white"/>
</svg>
