<svg width="40" height="40" viewBox="0 0 40 40" fill="none" xmlns="http://www.w3.org/2000/svg">
<circle cx="20" cy="20" r="20" fill="black"/>
<path d="M17.2365 28C14.2599 27.9828 11.7977 21.9066 11.7977 18.8121C11.7977 13.7573 15.5897 12.6506 17.0511 12.6506C17.7097 12.6506 18.413 12.9093 19.0332 13.1381C19.467 13.2978 19.9156 13.4626 20.1651 13.4626C20.3144 13.4626 20.6663 13.3224 20.977 13.1994C21.6396 12.9356 22.4642 12.6077 23.4243 12.6077C23.4261 12.6077 23.4284 12.6077 23.43 12.6077C24.147 12.6077 26.3208 12.7651 27.6277 14.7277L27.9339 15.1878L27.4933 15.5202C26.8639 15.9952 25.7154 16.8615 25.7154 18.5775C25.7154 20.61 27.0161 21.3916 27.6409 21.7676C27.9167 21.9335 28.2022 22.1046 28.2022 22.4788C28.2022 22.7232 26.2521 27.9697 23.4203 27.9697C22.7274 27.9697 22.2376 27.7614 21.8055 27.5777C21.3684 27.3918 20.9913 27.2316 20.3682 27.2316C20.0523 27.2316 19.6529 27.3809 19.23 27.5394C18.6522 27.7551 17.9981 28 17.256 28H17.2365Z" fill="white"/>
<path d="M23.7243 8C23.798 10.6592 21.8963 12.5041 19.9967 12.3884C19.6837 10.2662 21.896 8 23.7243 8Z" fill="white"/>
</svg>
