<svg width="140" height="38" viewBox="0 0 140 38" fill="none" xmlns="http://www.w3.org/2000/svg">
<path d="M37.9761 9.72186H49.007V12.4424H41.2216V17.1132H47.8108V19.8337H41.2216V25.2358H49.2816V27.9564H37.9761V9.72186Z" fill="#1E1E1E"/>
<path d="M50.625 14.2561H53.9L56.0865 21.3646C56.469 22.7103 56.871 24.1145 57.2534 25.4894H57.3612C57.7436 24.1145 58.1457 22.7103 58.5281 21.3646L60.7146 14.2561H63.8327L59.1556 27.9466H55.4198L50.625 14.2561Z" fill="#1E1E1E"/>
<path d="M65.0093 21.1111C65.0093 16.6646 68.1176 13.9148 71.3533 13.9148C75.0793 13.9148 77.0404 16.5866 77.0404 20.4188C77.0404 21.0331 76.9717 21.6474 76.9031 21.979H68.1666C68.4313 24.407 70.01 25.7917 72.226 25.7917C73.4026 25.7917 74.4125 25.4211 75.4225 24.797L76.5207 26.796C75.2068 27.6736 73.5497 28.2782 71.8043 28.2782C67.9901 28.2879 65.0093 25.6356 65.0093 21.1111ZM74.2557 19.7947C74.2557 17.6885 73.3144 16.4014 71.4317 16.4014C69.8237 16.4014 68.4117 17.591 68.1372 19.7947H74.2557Z" fill="#1E1E1E"/>
<path d="M79.9917 14.2561H82.6391L82.8843 16.1088H82.9725C84.208 14.9192 85.6102 13.9246 87.4928 13.9246C90.4442 13.9246 91.7287 15.9138 91.7287 19.3657V27.9564H88.5027V19.785C88.5027 17.5325 87.8556 16.6841 86.3652 16.6841C85.1493 16.6841 84.3551 17.279 83.2275 18.3906V27.9564H80.0015V14.2561H79.9917Z" fill="#1E1E1E"/>
<path d="M96.0135 23.3344V16.8109H94.0525V14.4024L96.1802 14.2561L96.5626 10.5215H99.2395V14.2561H102.75V16.8109H99.2395V23.3246C99.2395 24.9336 99.867 25.7234 101.191 25.7234C101.661 25.7234 102.22 25.5674 102.622 25.4114L103.171 27.7711C102.416 28.0149 101.465 28.2685 100.357 28.2685C97.1902 28.288 96.0135 26.289 96.0135 23.3344Z" fill="#1E1E1E"/>
<path d="M104.152 21.1111C104.152 16.5476 107.27 13.9148 110.702 13.9148C114.134 13.9148 117.252 16.5476 117.252 21.1111C117.252 25.6454 114.134 28.2782 110.702 28.2782C107.27 28.2879 104.152 25.6551 104.152 21.1111ZM113.928 21.1111C113.928 18.3711 112.712 16.5379 110.702 16.5379C108.682 16.5379 107.476 18.3711 107.476 21.1111C107.476 23.8512 108.692 25.6649 110.702 25.6649C112.722 25.6649 113.928 23.8609 113.928 21.1111Z" fill="#1E1E1E"/>
<path d="M120.311 14.2561H122.958L123.204 16.1283H123.292C124.459 14.9192 125.792 13.9246 127.518 13.9246C129.538 13.9246 130.685 14.8412 131.322 16.3819C132.636 14.9875 133.999 13.9246 135.754 13.9246C138.657 13.9246 140 15.9138 140 19.3657V27.9564H136.774V19.785C136.774 17.5325 136.098 16.6841 134.656 16.6841C133.783 16.6841 132.842 17.24 131.773 18.3906V27.9564H128.547V19.785C128.547 17.5325 127.871 16.6841 126.43 16.6841C125.576 16.6841 124.616 17.24 123.547 18.3906V27.9564H120.311V14.2561Z" fill="#1E1E1E"/>
<path d="M25.8855 17.2688C25.003 20.1551 13.6092 37.4828 13.2562 37.9996C12.9032 37.4828 1.49969 20.1551 0.627016 17.2688C-2.1773 8.06374 4.83349 -0.0589249 13.2562 -0.000418295C21.679 -0.0589249 28.68 8.06374 25.8855 17.2688Z" fill="#E8511D"/>
<path d="M19.2479 13.7198C19.2479 10.4337 16.5711 7.76187 13.2569 7.76187C9.95252 7.76187 7.26587 10.4239 7.26587 13.7198C7.26587 16.6646 9.41323 19.1121 12.2372 19.5899V27.4981C12.2372 28.0539 12.6882 28.5024 13.2471 28.5024C13.806 28.5024 14.257 28.0539 14.257 27.4981V19.5802C17.0908 19.1024 19.2479 16.6646 19.2479 13.7198ZM13.2569 18.1858C10.7762 18.1858 8.76608 16.1868 8.76608 13.7198C8.76608 11.2528 10.7762 9.25379 13.2569 9.25379C15.7376 9.25379 17.7477 11.2528 17.7477 13.7198C17.7477 16.1868 15.7376 18.1858 13.2569 18.1858Z" fill="white"/>
<path d="M13.9772 18.128C16.4254 17.7329 18.088 15.4389 17.6907 13.0042C17.2934 10.5695 14.9866 8.91612 12.5384 9.31125C10.0901 9.70638 8.42757 12.0004 8.8249 14.4351C9.22223 16.8698 11.529 18.5232 13.9772 18.128Z" fill="#E8511D"/>
<path d="M10.5701 12.9299C10.5407 12.9299 10.5113 12.9202 10.4819 12.9104C10.3544 12.8617 10.2956 12.7252 10.3446 12.5984C10.6584 11.7988 11.2957 11.1552 12.0997 10.8335C12.2272 10.7847 12.3645 10.8432 12.4135 10.97C12.4625 11.0967 12.4037 11.2332 12.2762 11.282C11.5997 11.555 11.0604 12.1011 10.7956 12.7739C10.7564 12.8714 10.6584 12.9299 10.5701 12.9299Z" fill="white"/>
</svg>
