<svg width="40" height="40" viewBox="0 0 40 40" fill="none" xmlns="http://www.w3.org/2000/svg">
<path d="M20 40C31.0457 40 40 31.0457 40 20C40 8.95431 31.0457 0 20 0C8.95431 0 0 8.95431 0 20C0 31.0457 8.95431 40 20 40Z" fill="#4D76A1"/>
<path fill-rule="evenodd" clip-rule="evenodd" d="M19.2446 28.7718H20.8144C20.8144 28.7718 21.2885 28.7197 21.5306 28.4588C21.7535 28.2192 21.7463 27.7693 21.7463 27.7693C21.7463 27.7693 21.7157 25.6629 22.6932 25.3528C23.6569 25.0472 24.8944 27.3885 26.206 28.2887C27.1979 28.97 27.9515 28.8206 27.9515 28.8206L31.4586 28.7718C31.4586 28.7718 33.2933 28.6588 32.4234 27.2163C32.352 27.0983 31.9167 26.1492 29.8158 24.1991C27.6168 22.158 27.9112 22.4881 30.5602 18.9575C32.1734 16.8074 32.8184 15.4947 32.6169 14.9324C32.4248 14.3969 31.2383 14.5385 31.2383 14.5385L27.2895 14.5631C27.2895 14.5631 26.9968 14.5232 26.7797 14.6529C26.5675 14.7802 26.431 15.0768 26.431 15.0768C26.431 15.0768 25.806 16.7407 24.9725 18.1557C23.2141 21.1416 22.5111 21.2992 22.2237 21.1138C21.5552 20.6817 21.7221 19.3779 21.7221 18.4516C21.7221 15.5581 22.161 14.3517 20.8675 14.0394C20.4383 13.9356 20.1224 13.8672 19.0247 13.8561C17.6157 13.8415 16.4231 13.8604 15.7479 14.1912C15.2987 14.4112 14.9521 14.9014 15.1632 14.9296C15.4242 14.9645 16.0153 15.0889 16.3287 15.5157C16.7333 16.0662 16.719 17.3026 16.719 17.3026C16.719 17.3026 16.9515 20.7088 16.1761 21.1319C15.6438 21.4221 14.9136 20.8296 13.346 18.1208C12.5428 16.7332 11.9363 15.1995 11.9363 15.1995C11.9363 15.1995 11.8194 14.9128 11.6108 14.7595C11.3577 14.5738 11.004 14.5146 11.004 14.5146L7.25169 14.5392C7.25169 14.5392 6.68839 14.5549 6.48161 14.7998C6.29764 15.0176 6.46699 15.4683 6.46699 15.4683C6.46699 15.4683 9.4047 22.3413 12.731 25.8048C15.781 28.9804 19.2446 28.7718 19.2446 28.7718Z" fill="white"/>
</svg>
